<svg version="1.1" id="Layer_1" xmlns="http://www.w3.org/2000/svg" x="0" y="0" viewBox="0 0 963 30" xml:space="preserve"><style type="text/css">.st0{fill:#f9f9fb}.st1{fill:#ebebf1}</style><path class="st0" d="M963 27.6h-5c-43-.1-76.5-4.4-111.9-10.1-37.3-6.1-75.8-12.3-127-12.4S628 11.6 589.5 17.5c-36.6 5.6-71.5 10.3-115 10.3-39-.6-71.6-4.9-105.3-10.3-37.3-6.1-75.7-12.3-127-12.4-51.2-.1-91 6.5-129.5 12.4C76.6 23 42.4 27.7 0 27.7V30h963v-2.4z"/><path class="st1" d="M833.5 12.5c-36.6 5.6-71.5 10.3-115 10.3-39-.6-71.6-4.9-105.3-10.3C575.9 6.4 537.4.1 486.2 0s-91 6.6-129.5 12.4c-36.5 5.6-71.1 10.4-114.1 10.3-43-.1-76.5-4.5-111.9-10.3C93.5 6.4 54.9.1 3.7 0H0v30h963V0c-51.2-.1-91 6.6-129.5 12.5z"/></svg>