<svg id="Layer_1" data-name="Layer 1" xmlns="http://www.w3.org/2000/svg" viewBox="0 0 355.92 134.26"><defs><style>.cls-1{fill:#2c973e;}.cls-2{fill:#395f8c;}</style></defs><path class="cls-1" d="M64.6,71.74s.18,0,.63,0c8,0,17.22-1.77,17.22-8.23,0-3.45-2.61-5.12-6.37-5.12-7.72,0-13.68,5.92-15.33,13.15a18.41,18.41,0,0,0-.31,7.92c1,6,5.42,9.3,12.09,9.29A28.23,28.23,0,0,0,85.69,85.6a15.71,15.71,0,0,1,3.12,7.51A34.62,34.62,0,0,1,70.24,98C57.62,98,49,89.67,49,77.77,49,61.71,60.65,49,76.5,49,86.62,49,93,54.31,93,62.65c0,12.52-13.26,17.22-26.91,17.1a6.53,6.53,0,0,1-1.64-.11,11.59,11.59,0,0,1,.17-7.9" transform="translate(-6.04 -6.37)"/><path class="cls-1" d="M73.17,38a3.49,3.49,0,1,0-3.49-3.49A3.49,3.49,0,0,0,73.17,38" transform="translate(-6.04 -6.37)"/><path class="cls-1" d="M73.17,26.28a4.11,4.11,0,1,0-4.11-4.1,4.1,4.1,0,0,0,4.11,4.1" transform="translate(-6.04 -6.37)"/><path class="cls-1" d="M73.17,13.35a3.49,3.49,0,1,0-3.49-3.49,3.49,3.49,0,0,0,3.49,3.49" transform="translate(-6.04 -6.37)"/><path class="cls-1" d="M73.17,140.63a3.49,3.49,0,1,0-3.49-3.49,3.49,3.49,0,0,0,3.49,3.49" transform="translate(-6.04 -6.37)"/><path class="cls-1" d="M73.17,128.93a4.11,4.11,0,1,0-4.11-4.11,4.1,4.1,0,0,0,4.11,4.11" transform="translate(-6.04 -6.37)"/><path class="cls-1" d="M73.17,116a3.49,3.49,0,1,0-3.49-3.48A3.49,3.49,0,0,0,73.17,116" transform="translate(-6.04 -6.37)"/><path class="cls-1" d="M55.41,42.74a3.49,3.49,0,1,0-4.77-1.28,3.5,3.5,0,0,0,4.77,1.28" transform="translate(-6.04 -6.37)"/><path class="cls-1" d="M49.56,32.61A4.11,4.11,0,1,0,44,31.1a4.12,4.12,0,0,0,5.61,1.51" transform="translate(-6.04 -6.37)"/><path class="cls-1" d="M43.09,21.41a3.49,3.49,0,1,0-4.77-1.28,3.5,3.5,0,0,0,4.77,1.28" transform="translate(-6.04 -6.37)"/><path class="cls-1" d="M106.73,131.64a3.49,3.49,0,1,0-4.77-1.28,3.5,3.5,0,0,0,4.77,1.28" transform="translate(-6.04 -6.37)"/><path class="cls-1" d="M100.88,121.5a4.1,4.1,0,1,0-5.61-1.5,4.09,4.09,0,0,0,5.61,1.5" transform="translate(-6.04 -6.37)"/><path class="cls-1" d="M94.41,110.3A3.49,3.49,0,1,0,89.65,109a3.49,3.49,0,0,0,4.76,1.28" transform="translate(-6.04 -6.37)"/><path class="cls-1" d="M42.41,55.74A3.49,3.49,0,1,0,37.64,57a3.5,3.5,0,0,0,4.77-1.28" transform="translate(-6.04 -6.37)"/><path class="cls-1" d="M32.28,49.89a4.1,4.1,0,1,0-5.61,1.5,4.11,4.11,0,0,0,5.61-1.5" transform="translate(-6.04 -6.37)"/><path class="cls-1" d="M21.08,43.42a3.49,3.49,0,1,0-4.77,1.28,3.49,3.49,0,0,0,4.77-1.28" transform="translate(-6.04 -6.37)"/><path class="cls-1" d="M37.65,73.5A3.49,3.49,0,1,0,34.16,77a3.49,3.49,0,0,0,3.49-3.49" transform="translate(-6.04 -6.37)"/><path class="cls-1" d="M26,73.5a4.11,4.11,0,1,0-4.11,4.11A4.11,4.11,0,0,0,26,73.5" transform="translate(-6.04 -6.37)"/><path class="cls-1" d="M13,73.5A3.49,3.49,0,1,0,9.53,77,3.49,3.49,0,0,0,13,73.5" transform="translate(-6.04 -6.37)"/><path class="cls-1" d="M42.41,91.26A3.49,3.49,0,1,0,41.13,96a3.5,3.5,0,0,0,1.28-4.76" transform="translate(-6.04 -6.37)"/><path class="cls-1" d="M32.28,97.11a4.1,4.1,0,1,0-1.51,5.61,4.11,4.11,0,0,0,1.51-5.61" transform="translate(-6.04 -6.37)"/><path class="cls-1" d="M21.08,103.58a3.49,3.49,0,1,0-1.28,4.76,3.49,3.49,0,0,0,1.28-4.76" transform="translate(-6.04 -6.37)"/><path class="cls-1" d="M55.41,104.26A3.49,3.49,0,1,0,56.69,109a3.48,3.48,0,0,0-1.28-4.77" transform="translate(-6.04 -6.37)"/><path class="cls-1" d="M49.56,114.39a4.11,4.11,0,1,0,1.5,5.61,4.11,4.11,0,0,0-1.5-5.61" transform="translate(-6.04 -6.37)"/><path class="cls-1" d="M43.09,125.59a3.49,3.49,0,1,0,1.28,4.77,3.5,3.5,0,0,0-1.28-4.77" transform="translate(-6.04 -6.37)"/><path class="cls-1" d="M106.73,15.36A3.49,3.49,0,1,0,108,20.13a3.5,3.5,0,0,0-1.28-4.77" transform="translate(-6.04 -6.37)"/><path class="cls-1" d="M100.88,25.5a4.1,4.1,0,1,0,1.5,5.61,4.11,4.11,0,0,0-1.5-5.61" transform="translate(-6.04 -6.37)"/><path class="cls-1" d="M94.41,36.7a3.49,3.49,0,1,0,1.28,4.77,3.49,3.49,0,0,0-1.28-4.77" transform="translate(-6.04 -6.37)"/><path class="cls-2" d="M248.29,120a6.06,6.06,0,0,1,2.7,2.27,6.2,6.2,0,0,1,1,3.46,5.88,5.88,0,0,1-2,4.64,7.7,7.7,0,0,1-5.24,1.77h-9.89V108.93h9.24a7.44,7.44,0,0,1,5,1.69,5.87,5.87,0,0,1-.81,9.36Zm-9.48-7.74v6.31h4.64a3.78,3.78,0,0,0,2.63-.85,3.12,3.12,0,0,0,.92-2.39,2.75,2.75,0,0,0-1-2.25,4,4,0,0,0-2.63-.82Zm5.25,16.57a4,4,0,0,0,2.8-1,3.62,3.62,0,0,0,0-5.08,3.81,3.81,0,0,0-2.7-1h-5.39v7Z" transform="translate(-6.04 -6.37)"/><path class="cls-2" d="M263.12,128.58H274v3.54H259.1V108.93h14.59v3.55H263.12v6.14h9.24v3.44h-9.24Z" transform="translate(-6.04 -6.37)"/><path class="cls-2" d="M292.68,122.88l5.94,9.14v.1h-4.57l-5.46-8.8h-3.51v8.8h-4V108.93h9.11a8,8,0,0,1,5.66,2.06,6.77,6.77,0,0,1,2.22,5.17,6.54,6.54,0,0,1-1.43,4.21A7.55,7.55,0,0,1,292.68,122.88Zm-7.6-2.9h4.67a4.44,4.44,0,0,0,3.1-1,3.49,3.49,0,0,0,1.13-2.74,3.61,3.61,0,0,0-1.16-2.75,4.27,4.27,0,0,0-3-1.07h-4.74Z" transform="translate(-6.04 -6.37)"/><path class="cls-2" d="M305.19,132.12V108.93h4v19.48h10.06v3.71Z" transform="translate(-6.04 -6.37)"/><path class="cls-2" d="M325.78,132.12V108.93h4v23.19Z" transform="translate(-6.04 -6.37)"/><path class="cls-2" d="M354.19,108.93h4v23.33h-1.57l-12.52-13.68c-.91-1-1.56-1.68-1.95-2.11.09,1.14.14,2,.14,2.52v13.13h-4V108.79h1.53L352,122.13c1,1.09,1.82,1.92,2.32,2.49-.07-1.11-.1-2.15-.1-3.1Z" transform="translate(-6.04 -6.37)"/><path class="cls-2" d="M121,83.32h.39c4.88,0,10.46-1.08,10.46-5,0-2.09-1.59-3.11-3.87-3.11-4.69,0-8.31,3.6-9.32,8a11.4,11.4,0,0,0-.19,4.82c.64,3.61,3.3,5.65,7.35,5.64a17,17,0,0,0,8-1.9,9.54,9.54,0,0,1,1.89,4.56,20.89,20.89,0,0,1-11.28,3c-7.67,0-12.93-5.07-12.93-12.3,0-9.76,7.1-17.49,16.73-17.49,6.15,0,10,3.23,10,8.3,0,7.61-8.06,10.47-16.35,10.4a4.07,4.07,0,0,1-1-.07,7.06,7.06,0,0,1,.1-4.8" transform="translate(-6.04 -6.37)"/><path class="cls-2" d="M105.39,49.37h7.37l-8.6,48.71H96.78Z" transform="translate(-6.04 -6.37)"/><path class="cls-2" d="M172.6,70.21,159.21,83.87l9.29,14v.21h-7.85l-8.13-12-2.12,12H143l8.54-48.71h7.38l-5.47,31.36L163.93,70h8.67Z" transform="translate(-6.04 -6.37)"/><path class="cls-2" d="M176.29,91.18a14.53,14.53,0,0,1,.2-2.26l2.19-12.77-5.26-.34,1-5.81h5.33l3.91-20.63h7.25L187.22,70H196l-1.09,6.15h-8.75L184,88.58a7.44,7.44,0,0,0-.14,1.16c0,1.64,1,2.33,2.53,2.33a8.17,8.17,0,0,0,4.44-1.37l1.84,5.81a15.6,15.6,0,0,1-8.33,2.25C179.7,98.76,176.29,96.23,176.29,91.18Z" transform="translate(-6.04 -6.37)"/><path class="cls-2" d="M282.29,91.18a14.53,14.53,0,0,1,.2-2.26l2.19-12.77-5.26-.34,1-5.81h5.33l3.91-20.63h7.25L293.22,70H302l-1.09,6.15h-8.75L290,88.58a7.44,7.44,0,0,0-.14,1.16c0,1.64,1,2.33,2.53,2.33a8.17,8.17,0,0,0,4.44-1.37l1.84,5.81a15.6,15.6,0,0,1-8.33,2.25C285.7,98.76,282.29,96.23,282.29,91.18Z" transform="translate(-6.04 -6.37)"/><path class="cls-2" d="M342.29,91.18a14.53,14.53,0,0,1,.2-2.26l2.19-12.77-5.26-.34,1-5.81h5.33l3.91-20.63h7.25L353.22,70H362l-1.09,6.15h-8.75L350,88.58a7.44,7.44,0,0,0-.14,1.16c0,1.64,1,2.33,2.53,2.33a8.17,8.17,0,0,0,4.44-1.37l1.84,5.81a15.6,15.6,0,0,1-8.33,2.25C345.7,98.76,342.29,96.23,342.29,91.18Z" transform="translate(-6.04 -6.37)"/><path class="cls-2" d="M221.17,70.55l-2.74,6.14A9.17,9.17,0,0,0,215,76c-3.69,0-7.38,2.39-8.54,8.95l-2.32,13.12h-7.38l5-28.08h5l.76,4.1c2.25-3.08,5.19-4.71,8.47-4.71A11.93,11.93,0,0,1,221.17,70.55Z" transform="translate(-6.04 -6.37)"/><path class="cls-2" d="M225.88,70h7.38l-4.92,28.08H221Zm1.3-10.59a4.67,4.67,0,0,1,4.57-4.85,3.93,3.93,0,0,1,4.24,4,4.76,4.76,0,0,1-4.78,4.85A3.83,3.83,0,0,1,227.18,59.41Z" transform="translate(-6.04 -6.37)"/><path class="cls-2" d="M248.21,89.54l-2,2.32c1.44-.07,2.19-.07,3.21-.07h9.29l-1.09,6.29H234.89l.35-2,14.14-18,1.5-1.91c-.89.07-1.57.07-2.39.07h-9.22L240.36,70h22L262,71.91Z" transform="translate(-6.04 -6.37)"/><path class="cls-2" d="M268.91,70h7.38l-4.92,28.08H264Zm1.3-10.59a4.67,4.67,0,0,1,4.57-4.85,3.93,3.93,0,0,1,4.24,4,4.76,4.76,0,0,1-4.78,4.85A3.83,3.83,0,0,1,270.21,59.41Z" transform="translate(-6.04 -6.37)"/><path class="cls-2" d="M336.67,70l-4.92,28.08h-5.6l-.2-3.83a14.52,14.52,0,0,1-10.66,4.58c-7,0-11.48-5-11.48-12.16a21,21,0,0,1,.35-3.49c1.5-8.47,7.58-13.93,15.37-13.93a10.8,10.8,0,0,1,9.63,5.12L331.28,70ZM327,84.21a11.44,11.44,0,0,0,.21-2.12c0-3.69-2.12-6.56-6.63-6.56s-8.27,3.28-9.22,8.27a10.19,10.19,0,0,0-.21,2c0,4,2.53,6.76,6.49,6.76C322.87,92.61,326.22,88.65,327,84.21ZM313.86,59.69a4.15,4.15,0,0,1,4.09-4.1,3.48,3.48,0,0,1,3.69,3.55,4.09,4.09,0,0,1-4,4.1A3.49,3.49,0,0,1,313.86,59.69Zm12.84-.07a4.09,4.09,0,0,1,4.1-4,3.41,3.41,0,0,1,3.62,3.48,4,4,0,0,1-4,4.17A3.49,3.49,0,0,1,326.7,59.62Z" transform="translate(-6.04 -6.37)"/></svg>