<svg version="1.1" id="Layer_1" xmlns="http://www.w3.org/2000/svg" x="0" y="0" viewBox="0 0 433.3 433.3" xml:space="preserve"><style type="text/css">.st0{fill:#388e3c}.st1{fill:#4caf50}.st2{fill:#fff}</style><path class="st0" d="M50 0h333.3c27.6 0 50 22.4 50 50v333.3c0 27.6-22.4 50-50 50H50c-27.6 0-50-22.4-50-50V50C0 22.4 22.4 0 50 0z"/><circle class="st1" cx="216.7" cy="217.5" r="181.7"/><path class="st0" d="M140.3 371l21.8-37.8c2.7-5.4.5-12-5-14.7-5-2.5-11-.9-14 3.7L121.2 360c-75-49.9-99.3-150.4-53.7-229.5S212.4 22.3 293.1 62.3l-21.8 37.8c-3.4 5.1-2 11.9 3 15.3 5.1 3.4 11.9 2 15.3-3 .3-.4.5-.8.7-1.2l21.8-37.8c75 49.9 99.4 150.4 53.7 229.5S220.9 411 140.3 371zM313.8 48.5C221-5.1 102 26.8 48.5 119.5s-21.7 211.8 71.1 265.3 211.8 21.7 265.3-71.1S406.5 102 313.8 48.5z"/><path class="st2" d="M182.1 285.9c-5.4 0-9.8-4.4-9.8-9.8 0-1.7.5-3.4 1.3-4.9l69.1-118.8c2.7-4.7 8.7-6.3 13.4-3.5 4.7 2.7 6.3 8.7 3.5 13.4l-69 118.7c-1.8 3-5 4.9-8.5 4.9zM338.3 217.8c-8-8-18.2-12-30.7-12s-23.1 4-31.1 12.1-12.4 18.4-12.4 30.9V259c0 13.3 4.5 23.9 12.6 31.9s18.6 12 31 12 22.5-4 30.5-12.1 11.9-18.4 11.9-30.9v-10.2c0-13.2-3.8-23.9-11.8-31.9zm-7.2 41.5c0 8.1-2.3 14.6-6.4 19.3s-9.7 7.1-16.6 7.1c-7.1 0-11.6-2.4-15.8-7.3s-5.2-11-5.2-18.6v-10.6c0-8 .9-14.4 5.2-19.2 4-4.7 9.9-7.3 16-7.1 7 0 12.5 2.4 16.7 7.2s6.2 11 6.2 18.5l-.1 10.7zM156.9 145c-8-8-18.4-12-30.9-12s-22.8 4-30.8 12.1-12.1 18.3-12.1 30.8v10.3c0 13.3 4.1 23.9 12.2 31.9s18.4 12 30.8 12S149 226 157 217.9s12.2-18.4 12.2-30.9v-10.2c-.1-13.2-4.3-23.8-12.3-31.8zm-10.8 41.5c0 8.1-.7 14.6-4.8 19.3s-8.9 7.1-15.8 7.1c-7.1 0-12.8-2.4-17-7.3s-6.4-11-6.4-18.6v-10.7c0-8 2.6-14.4 6.8-19.2s10-7.1 16.8-7.1c7 0 11.3 2.4 15.4 7.2s5 11 5 18.5v10.8z"/><path class="st1" d="M383.3 19.6c16.8 0 30.4 13.6 30.4 30.4v333.3c0 16.8-13.6 30.4-30.4 30.4H50c-16.8 0-30.4-13.6-30.4-30.4V50c0-16.8 13.6-30.4 30.4-30.4h333.3m0-19.6H50C22.4.1.1 22.4 0 50v333.3c.1 27.6 22.4 49.9 50 50h333.3c27.6-.1 49.9-22.4 50-50V50c-.1-27.6-22.4-49.9-50-50z"/></svg>