<svg xmlns="http://www.w3.org/2000/svg" viewBox="0 0 3070.39 433.32"><defs><style>.\39 e80c454-0a6e-4ce9-bdf1-5ba7d0537552{fill:#b0bec5}.\39 c26f6ad-7b53-42ab-8b25-d42adc70cf20{fill:#455a64}.\34 9d706e5-9065-4345-8745-81f2dbd50136{fill:#fff}</style></defs><title>Stromvergleich-Markenzeichen_RGB_grau</title><g id="476b0663-2b4c-42fb-afa2-865ec6b8c3c8" data-name="Ebene 2"><g id="8efb0bcf-553f-40a2-8c01-707d5c90c1ca" data-name="Ebene 1"><path class="9e80c454-0a6e-4ce9-bdf1-5ba7d0537552" d="M715 244.89q0-11.21-7.93-17.47t-27.88-13a267.08 267.08 0 0 1-32.61-13q-41.2-20.23-41.2-55.61a49.87 49.87 0 0 1 10.26-31.08q10.26-13.46 29-21t42.22-7.5q22.85 0 41 8.15t28.17 23.22q10 15.07 10 34.43h-51q0-13-7.93-20.09t-21.47-7.13q-13.69 0-21.62 6t-7.93 15.36q0 8.15 8.74 14.78t30.72 13.68q22 7.06 36.1 15.21 34.35 19.8 34.36 54.59 0 27.81-21 43.67t-57.5 15.87q-25.77 0-46.66-9.25t-31.45-25.33Q599 253.48 599 232.52h51.24q0 17 8.81 25.11t28.61 8.08q12.67 0 20-5.46t7.34-15.36zM847.22 104.55v39.16h25.91v34.07h-25.91v72.06q0 8.88 3.2 12.37t12.67 3.49a71.91 71.91 0 0 0 12.23-.87v35.09a90.57 90.57 0 0 1-27.66 4.22q-25.33 0-37.41-11.94T798.16 256v-78.22h-20.09v-34.07h20.09v-39.16zM987.7 188.11l-16.16-1.17q-23.15 0-29.7 14.56v99.72h-49.06V143.71h46l1.6 20.24q12.37-23.15 34.5-23.15a47.86 47.86 0 0 1 13.68 1.75zM994 221q0-23.58 9.17-42a65.59 65.59 0 0 1 26.35-28.32q17.18-9.9 40.33-9.9 35.38 0 55.76 21.91t20.39 59.63v1.75q0 36.83-20.46 58.45t-55.39 21.62q-33.63 0-54-20.16t-22-54.67zm49.06 3.06q0 21.84 6.84 32t20.24 10.19q26.2 0 26.79-40.33V221q0-42.36-27.08-42.36-24.6 0-26.64 36.54zM1213.94 143.71l1.6 18.49q16.74-21.4 45-21.4 29.84 0 40.33 23.73 16-23.73 46.29-23.73 47.89 0 49.21 57.94v102.49h-49.21V201.8q0-12.08-4.08-17.62t-14.85-5.53q-14.56 0-21.69 13l.15 2v107.58h-49.21v-99.14q0-12.37-3.93-17.91t-15-5.53q-14.12 0-21.55 13v109.58h-49.06V143.71zM1487.19 242.85l24.89-99.14h51.68l-51.39 157.52h-50.07l-51.39-157.52h51.83zM1652.72 304.14q-36.25 0-58.67-21.62t-22.42-56.27v-4.08q0-24.16 9-42.66a65.53 65.53 0 0 1 26.13-28.61q17.18-10.12 40.76-10.12 33.19 0 52.41 20.6t19.22 57.43v19.09h-97.54q2.62 13.25 11.5 20.82t23 7.57q23.29 0 36.4-16.3l22.42 26.5q-9.17 12.67-26 20.16a87.83 87.83 0 0 1-36.21 7.49zm-5.53-125.49q-21.55 0-25.62 28.53h49.5v-3.78q.29-11.79-6-18.27t-17.88-6.48zM1834.11 188.11l-16.11-1.16q-23.15 0-29.7 14.56v99.72h-49.1V143.71h46l1.6 20.24q12.37-23.15 34.5-23.15a47.86 47.86 0 0 1 13.68 1.75zM1843.29 221.31q0-23.87 7.86-42.22t22.57-28.32q14.7-10 34.21-10 24.6 0 38.43 16.6l1.75-13.68h44.55v151.57q0 20.82-9.68 36.18t-28 23.58q-18.34 8.22-42.51 8.22a88.87 88.87 0 0 1-33.56-6.55q-16.23-6.55-24.82-17l20.53-28.83q13.68 16.16 36.1 16.16 32.61 0 32.61-33.48v-4.95q-14.12 15.58-35.67 15.58-28.83 0-46.59-22.06t-17.76-59zm49.21 3.06q0 19.36 7.28 30.65t20.38 11.28q15.87 0 23.15-10.63v-66.25q-7.14-10.77-22.86-10.77-13.1 0-20.53 11.72t-7.43 33.99zM2072.28 301.23h-49.21V77.62h49.21zM2178.71 304.14q-36.25 0-58.67-21.62t-22.42-56.27v-4.08q0-24.16 9-42.66a65.53 65.53 0 0 1 26.13-28.61q17.18-10.12 40.76-10.12 33.19 0 52.41 20.6t19.22 57.43v19.09h-97.54q2.62 13.25 11.5 20.82t23 7.57q23.29 0 36.4-16.3l22.42 26.5q-9.17 12.67-26 20.16a87.83 87.83 0 0 1-36.21 7.49zm-5.53-125.49q-21.55 0-25.62 28.53H2197v-3.78q.29-11.79-6-18.27t-17.83-6.48zM2264.45 102.95a22.09 22.09 0 0 1 7.55-17.28q7.57-6.74 19.65-6.74t19.65 6.74a22.1 22.1 0 0 1 7.57 17.28 22.09 22.09 0 0 1-7.57 17.28q-7.57 6.74-19.65 6.74t-19.65-6.74a22.08 22.08 0 0 1-7.55-17.28zm52.12 198.28h-49.21V143.71h49.21zM2413.38 266.29q10.33 0 16-5.6t5.53-15.65h46q0 25.91-18.56 42.51t-47.82 16.6q-34.36 0-54.16-21.55t-19.8-59.69v-2q0-23.87 8.81-42.15a64.13 64.13 0 0 1 25.4-28.1q16.6-9.83 39.31-9.83 30.71 0 48.77 17t18.07 46.17h-46q0-12.23-6-18.78t-16-6.55q-19.07 0-22.27 24.31a171.31 171.31 0 0 0-1 21.25q0 23.73 5.68 32.9t18.04 9.16zM2549.65 160.6q15.72-19.8 40.18-19.8 26.06 0 39.31 15.43t13.54 45.57v99.43h-49.21V203q0-12.52-5.1-18.42t-17.32-5.9q-15.14 0-21.4 9.61v113h-49.06V77.62h49.06zM2700.32 253.63q11.65 0 19.36 6.92a24.13 24.13 0 0 1 0 35.38q-7.72 6.92-19.36 6.92t-19.44-7a24.12 24.12 0 0 1 0-35.23q7.65-6.99 19.44-6.99zM2753.9 221.31q0-37.41 16.16-59t45.13-21.55q21.11 0 35.52 16.6V77.62h49.21v223.61h-44.12l-2.48-16.89q-15.14 19.8-38.43 19.8-28.1 0-44.55-21.55t-16.44-61.28zm49.06 3.06q0 41.93 24.46 41.93 16.3 0 23.29-13.68v-60q-6.7-14-23-14-22.71 0-24.6 36.69zM3004 304.14q-36.25 0-58.67-21.62t-22.42-56.27v-4.08q0-24.16 9-42.66a65.53 65.53 0 0 1 26.09-28.59q17.18-10.12 40.76-10.12 33.19 0 52.41 20.6t19.22 57.43v19.07h-97.54q2.62 13.25 11.5 20.82t23 7.57q23.29 0 36.4-16.3l22.42 26.5q-9.17 12.67-26 20.16a87.83 87.83 0 0 1-36.17 7.49zm-5.53-125.49q-21.55 0-25.62 28.53h49.5v-3.78q.29-11.79-6-18.27t-17.88-6.48z"/><rect class="9c26f6ad-7b53-42ab-8b25-d42adc70cf20" width="433.32" height="433.32" rx="50" ry="50"/><circle class="9e80c454-0a6e-4ce9-bdf1-5ba7d0537552" cx="216.66" cy="217.49" r="181.69"/><path class="9c26f6ad-7b53-42ab-8b25-d42adc70cf20" d="M140.25 371L162 333.24a11 11 0 0 0-19-11L121.21 360c-75-49.86-99.35-150.42-53.72-229.46S212.4 22.32 293.07 62.32l-21.8 37.76a11 11 0 0 0 19 11l21.8-37.76c75 49.86 99.35 150.42 53.72 229.46S220.91 411 140.25 371zM313.78 48.45C221-5.11 102 26.77 48.45 119.54s-21.68 211.77 71.09 265.33 211.77 21.67 265.33-71.09S406.54 102 313.78 48.45z"/><path class="49d706e5-9065-4345-8745-81f2dbd50136" d="M182.09 285.87a9.79 9.79 0 0 1-8.45-14.72l69.12-118.83a9.79 9.79 0 1 1 16.93 9.85L190.56 281a9.79 9.79 0 0 1-8.47 4.87zM338.29 217.79c-8-8-18.19-12-30.7-12s-23.14 4-31.11 12.1-12.35 18.36-12.35 30.86V259c0 13.27 4.49 23.9 12.61 31.87s18.6 12 31 12 22.53-4 30.5-12.1 11.88-18.35 11.88-30.86v-10.18c.01-13.27-3.81-23.92-11.83-31.94zm-7.16 41.47c0 8.14-2.32 14.57-6.43 19.31s-9.73 7.11-16.6 7.11c-7.07 0-11.58-2.41-15.78-7.25s-5.19-11-5.19-18.59v-10.62c0-8 .94-14.43 5.19-19.16a20 20 0 0 1 16-7.11c7 0 12.5 2.39 16.66 7.18s6.2 11 6.2 18.52zM156.9 145c-8-8-18.39-12-30.89-12s-22.85 4-30.82 12.1-12.06 18.3-12.06 30.8v10.31c0 13.27 4.11 23.9 12.22 31.87s18.4 12 30.82 12S149 226 157 217.94s12.17-18.35 12.17-30.86v-10.17c-.04-13.27-4.25-23.91-12.27-31.91zm-10.77 41.47c0 8.14-.71 14.57-4.81 19.31s-8.92 7.11-15.8 7.11c-7.07 0-12.79-2.41-17-7.25s-6.4-11-6.4-18.59v-10.66c0-8 2.55-14.43 6.8-19.16s10-7.11 16.76-7.11c7 0 11.29 2.39 15.45 7.18s5 11 5 18.52z"/><path class="9e80c454-0a6e-4ce9-bdf1-5ba7d0537552" d="M383.32 19.58A30.45 30.45 0 0 1 413.73 50v333.32a30.45 30.45 0 0 1-30.42 30.42H50a30.45 30.45 0 0 1-30.42-30.42V50A30.45 30.45 0 0 1 50 19.58h333.32m0-19.58H50A50.15 50.15 0 0 0 0 50v333.32a50.15 50.15 0 0 0 50 50h333.32a50.15 50.15 0 0 0 50-50V50a50.15 50.15 0 0 0-50-50z"/></g></g></svg>